ply
format ascii 1.0
element vertex 381
property float x
property float y
property float z
element face 612
property list uchar int vertex_indices
end_header
264.556 566.737 0
258.649 578.706 0
252.743 590.675 0
246.836 602.644 0
240.929 614.614 0
255.819 562.627 0
250.343 572.711 0
244.867 582.794 0
239.391 592.878 0
233.915 602.962 0
248.485 556.386 0
243.279 564.99 0
238.072 573.595 0
232.866 582.199 0
227.66 590.804 0
243.079 548.349 0
237.638 555.935 0
232.197 563.521 0
226.756 571.106 0
221.314 578.692 0
238.368 539.873 0
232.383 546.625 0
226.397 553.377 0
220.412 560.129 0
214.426 566.881 0
233.229 531.701 0
226.51 537.739 0
219.79 543.778 0
213.071 549.816 0
206.351 555.854 0
226.891 524.398 0
219.849 529.436 0
212.807 534.474 0
205.765 539.513 0
198.723 544.551 0
221.344 516.452 0
213.987 520.521 0
206.63 524.59 0
199.272 528.659 0
191.915 532.728 0
214.69 509.411 0
206.87 512.573 0
199.05 515.735 0
191.23 518.897 0
183.41 522.059 0
207.311 503.129 0
198.943 505.471 0
190.574 507.813 0
182.206 510.155 0
173.837 512.497 0
198.872 498.381 0
193.377 498.825 0
187.882 499.269 0
182.387 499.714 0
176.891 500.158 0
194.356 496.642 0
189.586 495.837 0
182.909 496.93 0
477.93 552.508 0
471.772 543.969 0
465.614 535.429 0
459.456 526.89 0
453.298 518.351 0
486.646 540.974 0
479.512 532.656 0
472.379 524.339 0
465.245 516.022 0
458.111 507.705 0
495.989 529.934 0
488.932 522.799 0
481.876 515.665 0
474.82 508.53 0
467.763 501.395 0
505.234 518.814 0
498.681 513.136 0
492.129 507.458 0
485.576 501.78 0
479.024 496.103 0
515.173 508.325 0
508.695 503.449 0
502.218 498.573 0
495.74 493.697 0
489.262 488.821 0
524.614 497.386 0
518.333 493.422 0
512.052 489.458 0
505.77 485.494 0
499.489 481.531 0
534.416 486.755 0
528.108 483.453 0
521.801 480.15 0
515.493 476.847 0
509.185 473.544 0
545.079 477.013 0
538.577 474.208 0
532.074 471.403 0
525.572 468.598 0
519.07 465.793 0
555.629 467.147 0
548.927 464.832 0
542.225 462.516 0
535.522 460.201 0
528.82 457.886 0
565.78 456.857 0
558.968 455.124 0
552.157 453.391 0
545.346 451.658 0
538.534 449.925 0
570.729 444.215 0
565.145 443.697 0
559.562 443.178 0
553.979 442.66 0
548.395 442.141 0
566.429 438.687 0
559.499 436.706 0
553.503 438.628 0
443.88 511.819 0
434.463 505.287 0
425.045 498.755 0
415.628 492.223 0
453.937 501.231 0
446.514 495.957 0
439.091 490.682 0
431.669 485.408 0
424.246 480.133 0
460.08 484.507 0
452.308 479.647 0
444.537 474.788 0
436.765 469.928 0
428.994 465.069 0
467.156 468.148 0
458.665 463.561 0
450.174 458.975 0
441.682 454.388 0
433.191 449.801 0
473.01 451.31 0
464.588 447.277 0
456.165 443.243 0
447.742 439.21 0
439.319 435.177 0
478.21 434.257 0
470.328 430.973 0
462.447 427.689 0
454.566 424.405 0
446.685 421.121 0
483.567 417.256 0
476.056 414.645 0
468.545 412.034 0
461.033 409.423 0
453.522 406.812 0
490.247 400.739 0
482.454 398.541 0
474.661 396.342 0
466.868 394.144 0
459.074 391.946 0
497.534 384.467 0
489.542 382.719 0
481.55 380.971 0
473.558 379.223 0
465.566 377.475 0
505.232 368.397 0
497.025 367.086 0
488.818 365.775 0
480.611 364.463 0
472.404 363.152 0
507.603 351.569 0
500.733 351.011 0
493.863 350.453 0
486.994 349.894 0
480.124 349.336 0
502.092 344.688 0
493.694 342.205 0
486.026 344.218 0
401.623 492.647 0
387.618 493.071 0
373.613 493.496 0
359.608 493.92 0
410.711 474.789 0
400.255 475.801 0
389.799 476.813 0
379.342 477.824 0
368.886 478.836 0
409.618 456.701 0
400.426 457.581 0
391.233 458.462 0
382.04 459.343 0
372.848 460.223 0
412.188 438.367 0
402.617 439.07 0
393.046 439.773 0
383.475 440.477 0
373.904 441.18 0
415.05 420.077 0
405.034 420.592 0
395.018 421.107 0
385.002 421.622 0
374.987 422.138 0
416.982 401.677 0
406.926 402.048 0
396.87 402.418 0
386.815 402.789 0
376.759 403.159 0
417.54 383.181 0
408.305 383.505 0
399.071 383.828 0
389.836 384.151 0
380.601 384.475 0
419.793 364.809 0
410.871 365.037 0
401.949 365.265 0
393.027 365.493 0
384.105 365.721 0
423.038 346.584 0
414.177 346.679 0
405.315 346.774 0
396.454 346.869 0
387.592 346.964 0
427.261 328.558 0
418.325 328.492 0
409.389 328.426 0
400.453 328.36 0
391.517 328.293 0
428.323 310.599 0
420.645 310.527 0
412.967 310.454 0
405.289 310.382 0
397.611 310.309 0
422.202 303.811 0
413.398 301.327 0
404.172 303.665 0
347.456 494 0
335.304 494.08 0
323.152 494.16 0
311 494.241 0
353.117 478.871 0
342.582 478.488 0
332.047 478.104 0
321.513 477.72 0
310.978 477.336 0
349.251 462.145 0
339.214 461.748 0
329.176 461.35 0
319.139 460.953 0
309.102 460.556 0
347.052 445.106 0
336.84 444.805 0
326.628 444.504 0
316.416 444.203 0
306.204 443.902 0
344.521 428.113 0
334.307 427.882 0
324.093 427.652 0
313.879 427.421 0
303.665 427.19 0
342.633 411.049 0
332.572 410.872 0
322.51 410.695 0
312.448 410.518 0
302.386 410.341 0
340.104 394.051 0
330.578 393.9 0
321.052 393.749 0
311.526 393.599 0
302 393.448 0
338.081 376.993 0
328.912 376.886 0
319.742 376.78 0
310.573 376.673 0
301.403 376.566 0
337.176 359.839 0
328.132 359.798 0
319.088 359.757 0
310.044 359.715 0
301 359.674 0
337 342.655 0
328.14 342.69 0
319.28 342.725 0
310.42 342.76 0
301.56 342.795 0
334.356 325.834 0
327.417 326.074 0
320.478 326.314 0
313.539 326.554 0
306.599 326.795 0
328.027 319.918 0
319.971 317.927 0
311.988 320.519 0
436.724 547.342 0
415.364 528.03 0
382.525 520.419 0
348.387 520.911 0
426.438 684.263 0
397.958 681.012 0
369.478 677.762 0
340.998 674.511 0
312.518 671.26 0
426.824 700.487 0
399.393 697.392 0
371.963 694.297 0
344.532 691.202 0
317.101 688.107 0
425.474 717.546 0
398.822 714.477 0
372.17 711.409 0
345.518 708.341 0
318.866 705.272 0
424.768 734.043 0
398.612 731.103 0
372.456 728.162 0
346.3 725.222 0
320.145 722.281 0
417.331 749.828 0
393.169 749.861 0
369.062 748.259 0
345.129 746.948 0
321.266 739.508 0
276.547 592.868 0
271.171 604.152 0
265.795 615.436 0
260.419 626.719 0
288.537 618.999 0
283.506 629.934 0
278.474 640.869 0
300.528 645.129 0
295.73 655.888 0
312.139 627.005 0
302.025 604.47 0
291.911 581.935 0
281.797 559.4 0
311.759 582.75 0
307.507 561.299 0
303.255 539.848 0
311.38 538.496 0
311.612 513.918 0
312.329 649.133 0
311.949 604.878 0
311.569 560.623 0
311.19 516.368 0
430.871 666.964 0
437.84 650.542 0
448.16 635.944 0
456.968 620.386 0
463.112 603.618 0
467.792 586.363 0
470.929 568.762 0
408.383 664.977 0
418.807 648.941 0
429.232 632.905 0
439.656 616.87 0
450.081 600.834 0
460.505 584.798 0
379.085 659.13 0
388.692 640.499 0
398.298 621.867 0
407.905 603.236 0
417.511 584.605 0
427.118 565.973 0
376.033 656.371 0
382.589 634.981 0
389.144 613.591 0
395.699 592.201 0
402.254 570.81 0
408.809 549.42 0
371.342 655.284 0
373.206 632.807 0
375.07 610.329 0
376.933 587.852 0
378.797 565.374 0
380.661 542.897 0
366.465 655.354 0
363.452 632.947 0
360.439 610.54 0
357.426 588.133 0
354.413 565.726 0
351.4 543.318 0
336.74 651.919 0
332.482 629.327 0
328.223 606.735 0
323.965 584.144 0
319.707 561.552 0
315.448 538.96 0
3 0 1 5
3 1 6 5
3 1 2 6
3 2 7 6
3 2 3 7
3 3 8 7
3 3 4 8
3 4 9 8
3 5 6 10
3 6 11 10
3 6 7 11
3 7 12 11
3 7 8 12
3 8 13 12
3 8 9 13
3 9 14 13
3 10 11 15
3 11 16 15
3 11 12 16
3 12 17 16
3 12 13 17
3 13 18 17
3 13 14 18
3 14 19 18
3 15 16 20
3 16 21 20
3 16 17 21
3 17 22 21
3 17 18 22
3 18 23 22
3 18 19 23
3 19 24 23
3 20 21 25
3 21 26 25
3 21 22 26
3 22 27 26
3 22 23 27
3 23 28 27
3 23 24 28
3 24 29 28
3 25 26 30
3 26 31 30
3 26 27 31
3 27 32 31
3 27 28 32
3 28 33 32
3 28 29 33
3 29 34 33
3 30 31 35
3 31 36 35
3 31 32 36
3 32 37 36
3 32 33 37
3 33 38 37
3 33 34 38
3 34 39 38
3 35 36 40
3 36 41 40
3 36 37 41
3 37 42 41
3 37 38 42
3 38 43 42
3 38 39 43
3 39 44 43
3 40 41 45
3 41 46 45
3 41 42 46
3 42 47 46
3 42 43 47
3 43 48 47
3 43 44 48
3 44 49 48
3 45 46 50
3 46 51 50
3 46 47 51
3 47 52 51
3 47 48 52
3 48 53 52
3 48 49 53
3 49 54 53
3 50 51 55
3 51 52 55
3 52 56 55
3 52 57 56
3 52 53 57
3 53 54 57
3 58 59 63
3 59 64 63
3 59 60 64
3 60 65 64
3 60 61 65
3 61 66 65
3 61 62 66
3 62 67 66
3 63 64 68
3 64 69 68
3 64 65 69
3 65 70 69
3 65 66 70
3 66 71 70
3 66 67 71
3 67 72 71
3 68 69 73
3 69 74 73
3 69 70 74
3 70 75 74
3 70 71 75
3 71 76 75
3 71 72 76
3 72 77 76
3 73 74 78
3 74 79 78
3 74 75 79
3 75 80 79
3 75 76 80
3 76 81 80
3 76 77 81
3 77 82 81
3 78 79 83
3 79 84 83
3 79 80 84
3 80 85 84
3 80 81 85
3 81 86 85
3 81 82 86
3 82 87 86
3 83 84 88
3 84 89 88
3 84 85 89
3 85 90 89
3 85 86 90
3 86 91 90
3 86 87 91
3 87 92 91
3 88 89 93
3 89 94 93
3 89 90 94
3 90 95 94
3 90 91 95
3 91 96 95
3 91 92 96
3 92 97 96
3 93 94 98
3 94 99 98
3 94 95 99
3 95 100 99
3 95 96 100
3 96 101 100
3 96 97 101
3 97 102 101
3 98 99 103
3 99 104 103
3 99 100 104
3 100 105 104
3 100 101 105
3 101 106 105
3 101 102 106
3 102 107 106
3 103 104 108
3 104 109 108
3 104 105 109
3 105 110 109
3 105 106 110
3 106 111 110
3 106 107 111
3 107 112 111
3 108 109 113
3 109 110 113
3 110 114 113
3 110 115 114
3 110 111 115
3 111 112 115
3 62 116 120
3 116 121 120
3 116 117 121
3 117 122 121
3 117 118 122
3 118 123 122
3 118 119 123
3 119 124 123
3 120 121 125
3 121 126 125
3 121 122 126
3 122 127 126
3 122 123 127
3 123 128 127
3 123 124 128
3 124 129 128
3 125 126 130
3 126 131 130
3 126 127 131
3 127 132 131
3 127 128 132
3 128 133 132
3 128 129 133
3 129 134 133
3 130 131 135
3 131 136 135
3 131 132 136
3 132 137 136
3 132 133 137
3 133 138 137
3 133 134 138
3 134 139 138
3 135 136 140
3 136 141 140
3 136 137 141
3 137 142 141
3 137 138 142
3 138 143 142
3 138 139 143
3 139 144 143
3 140 141 145
3 141 146 145
3 141 142 146
3 142 147 146
3 142 143 147
3 143 148 147
3 143 144 148
3 144 149 148
3 145 146 150
3 146 151 150
3 146 147 151
3 147 152 151
3 147 148 152
3 148 153 152
3 148 149 153
3 149 154 153
3 150 151 155
3 151 156 155
3 151 152 156
3 152 157 156
3 152 153 157
3 153 158 157
3 153 154 158
3 154 159 158
3 155 156 160
3 156 161 160
3 156 157 161
3 157 162 161
3 157 158 162
3 158 163 162
3 158 159 163
3 159 164 163
3 160 161 165
3 161 166 165
3 161 162 166
3 162 167 166
3 162 163 167
3 163 168 167
3 163 164 168
3 164 169 168
3 165 166 170
3 166 167 170
3 167 171 170
3 167 172 171
3 167 168 172
3 168 169 172
3 119 173 177
3 173 178 177
3 173 174 178
3 174 179 178
3 174 175 179
3 175 180 179
3 175 176 180
3 176 181 180
3 177 178 182
3 178 183 182
3 178 179 183
3 179 184 183
3 179 180 184
3 180 185 184
3 180 181 185
3 181 186 185
3 182 183 187
3 183 188 187
3 183 184 188
3 184 189 188
3 184 185 189
3 185 190 189
3 185 186 190
3 186 191 190
3 187 188 192
3 188 193 192
3 188 189 193
3 189 194 193
3 189 190 194
3 190 195 194
3 190 191 195
3 191 196 195
3 192 193 197
3 193 198 197
3 193 194 198
3 194 199 198
3 194 195 199
3 195 200 199
3 195 196 200
3 196 201 200
3 197 198 202
3 198 203 202
3 198 199 203
3 199 204 203
3 199 200 204
3 200 205 204
3 200 201 205
3 201 206 205
3 202 203 207
3 203 208 207
3 203 204 208
3 204 209 208
3 204 205 209
3 205 210 209
3 205 206 210
3 206 211 210
3 207 208 212
3 208 213 212
3 208 209 213
3 209 214 213
3 209 210 214
3 210 215 214
3 210 211 215
3 211 216 215
3 212 213 217
3 213 218 217
3 213 214 218
3 214 219 218
3 214 215 219
3 215 220 219
3 215 216 220
3 216 221 220
3 217 218 222
3 218 223 222
3 218 219 223
3 219 224 223
3 219 220 224
3 220 225 224
3 220 221 225
3 221 226 225
3 222 223 227
3 223 224 227
3 224 228 227
3 224 229 228
3 224 225 229
3 225 226 229
3 176 230 234
3 230 235 234
3 230 231 235
3 231 236 235
3 231 232 236
3 232 237 236
3 232 233 237
3 233 238 237
3 234 235 239
3 235 240 239
3 235 236 240
3 236 241 240
3 236 237 241
3 237 242 241
3 237 238 242
3 238 243 242
3 239 240 244
3 240 245 244
3 240 241 245
3 241 246 245
3 241 242 246
3 242 247 246
3 242 243 247
3 243 248 247
3 244 245 249
3 245 250 249
3 245 246 250
3 246 251 250
3 246 247 251
3 247 252 251
3 247 248 252
3 248 253 252
3 249 250 254
3 250 255 254
3 250 251 255
3 251 256 255
3 251 252 256
3 252 257 256
3 252 253 257
3 253 258 257
3 254 255 259
3 255 260 259
3 255 256 260
3 256 261 260
3 256 257 261
3 257 262 261
3 257 258 262
3 258 263 262
3 259 260 264
3 260 265 264
3 260 261 265
3 261 266 265
3 261 262 266
3 262 267 266
3 262 263 267
3 263 268 267
3 264 265 269
3 265 270 269
3 265 266 270
3 266 271 270
3 266 267 271
3 267 272 271
3 267 268 272
3 268 273 272
3 269 270 274
3 270 275 274
3 270 271 275
3 271 276 275
3 271 272 276
3 272 277 276
3 272 273 277
3 273 278 277
3 274 275 279
3 275 280 279
3 275 276 280
3 276 281 280
3 276 277 281
3 277 282 281
3 277 278 282
3 278 283 282
3 279 280 284
3 280 281 284
3 281 285 284
3 281 286 285
3 281 282 286
3 282 283 286
3 287 59 58
3 287 60 59
3 287 61 60
3 287 62 61
3 288 116 62
3 288 117 116
3 288 118 117
3 288 119 118
3 289 173 119
3 289 174 173
3 289 175 174
3 289 176 175
3 290 230 176
3 290 231 230
3 290 232 231
3 290 233 232
3 291 296 292
3 292 296 297
3 292 297 293
3 293 297 298
3 293 298 294
3 294 298 299
3 294 299 295
3 295 299 300
3 296 301 297
3 297 301 302
3 297 302 298
3 298 302 303
3 298 303 299
3 299 303 304
3 299 304 300
3 300 304 305
3 301 306 302
3 302 306 307
3 302 307 303
3 303 307 308
3 303 308 304
3 304 308 309
3 304 309 305
3 305 309 310
3 306 311 307
3 307 311 312
3 307 312 308
3 308 312 313
3 308 313 309
3 309 313 314
3 309 314 310
3 310 314 315
3 0 316 1
3 1 316 317
3 1 317 2
3 2 317 318
3 2 318 3
3 3 318 319
3 3 319 4
3 316 320 317
3 317 321 318
3 317 320 321
3 318 322 319
3 318 321 322
3 320 323 321
3 321 324 322
3 321 323 324
3 323 295 324
3 295 323 334
3 323 325 334
3 323 320 325
3 320 326 325
3 320 316 326
3 316 327 326
3 316 0 327
3 0 328 327
3 325 326 335
3 326 329 335
3 326 327 329
3 327 330 329
3 327 328 330
3 328 331 330
3 329 330 336
3 330 332 336
3 330 331 332
3 331 333 332
3 332 333 337
3 333 233 337
3 344 287 58
3 287 288 62
3 288 289 119
3 289 290 176
3 290 337 233
3 338 345 339
3 339 345 346
3 339 346 340
3 340 346 347
3 340 347 341
3 341 347 348
3 341 348 342
3 342 348 349
3 342 349 343
3 343 349 350
3 345 293 351
3 345 351 346
3 346 351 352
3 346 352 347
3 347 352 353
3 347 353 348
3 348 353 354
3 348 354 349
3 349 354 355
3 349 355 350
3 350 355 356
3 350 356 344
3 344 356 287
3 351 293 357
3 351 357 352
3 352 357 358
3 352 358 353
3 353 358 359
3 353 359 354
3 354 359 360
3 354 360 355
3 355 360 361
3 355 361 356
3 356 361 362
3 356 362 287
3 287 362 288
3 357 293 363
3 357 363 358
3 358 363 364
3 358 364 359
3 359 364 365
3 359 365 360
3 360 365 366
3 360 366 361
3 361 366 367
3 361 367 362
3 362 367 368
3 362 368 288
3 288 368 289
3 363 293 369
3 363 369 364
3 364 369 370
3 364 370 365
3 365 370 371
3 365 371 366
3 366 371 372
3 366 372 367
3 367 372 373
3 367 373 368
3 368 373 374
3 368 374 289
3 289 374 290
3 369 375 370
3 370 375 376
3 370 376 371
3 371 376 377
3 371 377 372
3 372 377 378
3 372 378 373
3 373 378 379
3 373 379 374
3 374 379 380
3 374 380 290
3 290 380 337
3 375 334 376
3 376 334 325
3 376 325 377
3 377 325 335
3 377 335 378
3 378 335 329
3 378 329 379
3 379 329 336
3 379 336 380
3 380 336 332
3 380 332 337
3 344 343 350
3 291 292 338
3 292 345 338
3 292 293 345
3 293 294 369
3 294 375 369
3 294 295 375
3 295 334 375
