ply
format ascii 1.0
comment Made by Golan Levin et al.
comment This file is the bind pose for a generic hand.
element vertex 339
property float x
property float y
element face 532
property list uchar int vertex_index
end_header
292.500 666.000
293.000 466.000
222.000 323.000
189.500 278.000
170.500 248.000
256.250 305.000
232.000 241.000
215.500 193.252
294.000 296.000
292.038 215.500
292.038 163.000
335.000 300.000
357.402 228.000
368.402 187.252
323.000 458.000
397.250 392.000
438.500 346.000
480.500 320.000
378.401 138.752
288.038 102.000
197.000 144.752
149.000 216.500
226.667 294.333
269.333 276.833
316.833 273.333
197.000 316.167
221.000 294.500
230.000 289.000
264.000 275.667
273.500 273.000
311.167 270.500
322.334 271.500
361.167 285.166
177.667 287.333
201.667 268.333
215.333 248.667
248.667 233.667
272.333 216.000
311.333 215.333
339.333 221.667
374.333 234.667
159.000 255.667
181.000 240.667
200.500 200.000
229.750 188.250
274.500 163.500
308.500 162.000
352.000 182.250
382.500 191.500
144.000 228.000
163.250 214.750
187.750 158.750
214.500 147.750
273.250 111.750
305.750 111.750
365.250 142.750
389.750 151.500
382.334 356.667
411.500 404.000
425.250 331.000
447.000 362.000
469.500 314.250
484.250 333.250
350.500 476.000
236.000 472.500
214.500 396.500
236.000 663.500
350.500 663.000
369.000 320.000
209.000 306.000
247.000 281.000
292.000 271.000
341.000 279.000
239.750 358.750
257.500 394.500
275.250 430.250
265.438 345.250
274.625 385.500
283.812 425.750
293.750 338.500
293.500 381.000
293.250 423.500
324.500 341.500
314.000 383.000
303.500 424.500
350.000 356.500
331.000 393.000
312.000 429.500
201.375 336.250
205.750 356.333
210.125 376.417
219.875 415.500
225.250 434.500
230.625 453.500
315.333 438.667
337.667 411.333
360.001 384.000
230.875 340.875
260.844 325.125
293.875 317.250
329.750 320.750
359.500 338.250
248.625 376.625
270.031 365.375
293.625 359.750
319.250 362.250
340.500 374.750
348.834 397.667
371.167 370.334
326.500 425.000
321.500 411.250
308.750 403.750
293.375 402.250
279.219 405.625
266.375 412.375
396.250 422.000
381.000 440.000
365.750 458.000
342.000 446.667
358.667 434.000
371.333 420.000
384.571 405.714
252.938 441.875
245.812 423.438
238.688 405.000
231.562 386.562
224.938 367.583
218.312 348.604
403.875 413.000
388.625 431.000
264.500 469.250
321.750 471.000
264.250 664.750
321.500 664.500
350.500 616.250
350.500 569.500
350.500 522.750
321.688 519.375
321.625 567.750
321.562 616.125
292.875 516.000
292.750 566.000
292.625 616.000
264.438 518.125
264.375 567.000
264.312 615.875
236.000 520.250
236.000 568.000
236.000 615.750
482.375 326.625
475.000 317.125
442.750 354.000
431.875 338.500
471.833 342.833
459.417 352.417
454.750 319.833
440.000 325.417
452.500 337.333
466.500 328.667
446.250 331.375
460.625 324.250
455.958 344.875
469.167 335.750
387.306 368.445
392.278 380.222
438.125 372.500
429.250 383.000
420.375 393.500
431.375 363.500
420.000 373.000
408.625 382.500
426.944 354.556
415.389 363.111
403.833 371.667
420.733 345.986
409.591 353.472
398.448 360.958
414.521 337.417
403.792 343.833
393.063 350.250
379.429 390.857
366.857 401.143
354.857 414.286
169.167 223.389
175.083 232.028
156.167 227.000
163.333 237.500
149.000 237.222
154.000 246.445
156.125 215.625
146.500 222.250
152.583 232.111
158.667 241.972
164.750 251.833
162.667 225.194
169.208 234.764
175.750 244.333
195.583 273.167
183.583 282.667
187.889 249.889
194.778 259.111
182.361 253.945
188.972 263.556
176.833 258.000
183.167 268.000
171.028 262.111
177.306 272.389
165.222 266.222
171.445 276.778
203.000 311.083
215.000 300.250
214.556 285.778
208.111 277.055
202.056 282.194
208.528 291.222
196.000 287.333
202.500 296.667
190.056 292.139
196.528 301.611
184.111 296.944
190.556 306.556
219.583 161.250
224.667 174.750
203.167 160.919
209.333 177.085
192.000 172.500
196.250 186.250
205.750 146.251
192.375 151.751
208.000 196.626
222.625 190.751
211.375 161.084
217.000 175.918
197.583 166.709
202.792 181.668
223.667 244.833
240.333 237.333
242.361 218.528
236.056 203.389
228.528 206.279
234.431 221.806
221.000 209.168
226.500 225.084
213.222 212.695
218.444 228.764
205.444 216.222
210.389 232.445
238.500 285.000
255.500 278.333
258.889 261.667
253.778 247.667
245.389 251.000
250.445 264.667
237.000 254.333
242.000 267.667
228.611 258.222
233.555 271.611
220.222 262.111
225.111 275.556
280.644 106.875
296.894 106.875
300.269 162.500
283.269 163.250
306.667 128.500
307.583 145.250
298.019 125.417
299.144 143.958
289.371 122.333
290.705 142.667
281.519 125.667
282.394 144.458
273.667 129.000
274.083 146.250
282.185 215.750
301.685 215.417
310.389 197.555
309.444 179.778
300.741 180.139
301.213 197.778
292.038 180.500
292.038 198.000
282.908 180.750
282.547 198.250
273.778 181.000
273.055 198.500
301.583 270.750
282.750 272.000
311.278 233.722
311.222 252.111
301.651 233.861
301.617 252.305
292.025 234.000
292.013 252.500
282.374 234.500
282.562 253.250
272.722 235.000
273.111 254.000
371.826 140.751
384.076 145.126
360.201 184.751
375.451 189.376
384.917 178.167
387.333 164.833
381.201 159.876
378.326 174.626
375.068 154.919
371.735 171.085
367.951 155.418
364.076 170.084
360.833 155.917
356.417 169.083
365.867 231.333
348.367 224.833
379.778 205.889
377.055 220.278
372.257 203.362
369.062 217.348
364.735 200.835
361.069 214.417
356.257 198.112
352.312 211.473
347.778 195.389
343.555 208.528
331.667 275.250
351.083 282.083
369.944 251.500
365.556 268.333
360.939 248.250
356.011 265.167
351.935 245.000
346.467 262.000
342.801 241.639
337.234 258.444
333.667 238.278
328.000 254.889
199.917 329.556
198.458 322.861
363.778 296.777
366.389 308.389
3 26 22 2
3 28 23 5
3 27 5 22
3 30 24 8
3 29 8 23
3 24 31 11
3 22 5 2
3 23 8 5
3 24 11 8
3 68 101 100
3 11 68 100
3 11 100 99
3 8 11 99
3 8 99 98
3 5 8 98
3 5 98 97
3 2 5 97
3 2 97 127
3 88 2 127
3 88 127 89
3 58 128 15
3 128 115 121
3 15 128 121
3 101 85 82
3 100 101 82
3 100 82 79
3 99 100 79
3 99 79 76
3 98 99 76
3 98 76 73
3 98 73 97
3 97 73 126
3 97 126 127
3 127 126 90
3 127 90 89
3 115 129 121
3 129 116 120
3 121 129 120
3 85 106 105
3 82 85 105
3 82 105 104
3 82 104 79
3 104 103 79
3 79 103 76
3 76 103 102
3 76 102 73
3 73 102 125
3 73 125 126
3 126 125 65
3 126 65 90
3 116 117 119
3 120 116 119
3 117 63 118
3 119 117 118
3 118 63 14
3 96 107 86
3 106 96 86
3 106 86 83
3 106 83 105
3 105 83 80
3 105 80 104
3 104 80 77
3 103 104 77
3 103 77 74
3 103 74 102
3 102 74 124
3 102 124 125
3 125 124 91
3 125 91 65
3 107 95 86
3 86 95 110
3 86 110 111
3 86 111 83
3 83 111 112
3 83 112 80
3 80 112 113
3 80 113 77
3 77 113 114
3 74 77 114
3 74 114 123
3 74 123 124
3 124 123 92
3 124 92 91
3 119 118 109
3 95 119 109
3 95 109 110
3 94 14 1
3 109 94 87
3 110 109 87
3 110 87 84
3 111 110 84
3 111 84 81
3 111 81 112
3 112 81 78
3 112 78 113
3 113 78 75
3 114 113 75
3 75 122 114
3 114 122 123
3 123 122 93
3 92 123 93
3 87 94 1
3 87 1 84
3 84 1 81
3 81 1 78
3 78 1 75
3 75 1 130
3 122 75 130
3 122 130 64
3 93 122 64
3 14 63 131
3 14 131 1
3 63 136 137
3 131 63 137
3 131 137 140
3 1 131 140
3 130 1 140
3 130 140 143
3 64 130 143
3 64 143 146
3 136 135 138
3 137 136 138
3 137 138 141
3 140 137 141
3 143 140 141
3 143 141 144
3 146 143 144
3 144 147 146
3 135 134 139
3 138 135 139
3 138 139 142
3 141 138 142
3 144 141 142
3 144 142 145
3 147 144 145
3 147 145 148
3 134 67 133
3 139 134 133
3 139 133 0
3 142 139 0
3 145 142 0
3 145 0 132
3 148 145 132
3 148 132 66
3 62 153 162
3 149 62 162
3 149 162 158
3 17 149 158
3 150 17 158
3 150 158 160
3 61 150 160
3 61 160 155
3 153 154 161
3 162 153 161
3 162 161 157
3 158 162 157
3 160 158 157
3 160 157 159
3 155 160 159
3 155 159 156
3 154 60 151
3 161 154 151
3 161 151 16
3 157 161 16
3 159 157 16
3 159 16 152
3 156 159 152
3 156 152 59
3 60 165 168
3 151 60 168
3 151 168 171
3 16 151 171
3 152 16 171
3 152 171 174
3 59 152 174
3 59 174 177
3 165 166 169
3 168 165 169
3 168 169 172
3 171 168 172
3 174 171 172
3 174 172 175
3 177 174 175
3 177 175 178
3 166 167 170
3 169 166 170
3 169 170 173
3 172 169 173
3 175 172 173
3 175 173 176
3 178 175 176
3 178 176 179
3 167 58 15
3 170 167 15
3 170 15 164
3 173 170 164
3 176 173 164
3 176 164 163
3 179 176 163
3 179 163 57
3 15 121 180
3 164 15 180
3 163 164 180
3 163 180 108
3 57 163 108
3 180 121 181
3 121 120 181
3 96 181 107
3 96 180 181
3 108 180 96
3 182 120 119
3 181 120 182
3 182 119 95
3 107 182 95
3 181 182 107
3 50 183 194
3 189 50 194
3 189 194 185
3 21 189 185
3 21 185 190
3 190 185 191
3 49 190 191
3 49 191 187
3 183 184 195
3 194 183 195
3 194 195 186
3 185 194 186
3 191 185 186
3 191 186 192
3 187 191 192
3 187 192 188
3 184 42 196
3 195 184 196
3 195 196 4
3 186 195 4
3 192 186 4
3 192 4 193
3 192 193 188
3 188 193 41
3 42 199 201
3 196 42 201
3 196 201 203
3 4 196 203
3 193 4 203
3 193 203 205
3 41 193 205
3 41 205 207
3 199 200 202
3 201 199 202
3 201 202 204
3 203 201 204
3 205 203 204
3 205 204 206
3 207 205 206
3 207 206 208
3 200 34 197
3 202 200 197
3 202 197 3
3 204 202 3
3 206 204 3
3 206 3 198
3 208 206 198
3 208 198 33
3 34 212 213
3 197 34 213
3 197 213 215
3 3 197 215
3 198 3 215
3 198 215 217
3 198 217 33
3 33 217 219
3 212 211 214
3 213 212 214
3 213 214 216
3 215 213 216
3 217 215 216
3 217 216 218
3 219 217 218
3 219 218 220
3 211 26 210
3 214 211 210
3 214 210 69
3 216 214 69
3 218 216 69
3 218 69 209
3 220 218 209
3 220 209 25
3 210 26 2
3 210 2 69
3 69 2 209
3 209 2 25
3 52 221 231
3 227 52 231
3 227 231 223
3 20 227 223
3 228 20 223
3 228 223 233
3 51 228 233
3 51 233 225
3 221 222 232
3 231 221 232
3 231 232 224
3 223 231 224
3 233 223 224
3 233 224 234
3 225 233 234
3 225 234 226
3 222 44 230
3 232 222 230
3 232 230 7
3 224 232 7
3 234 224 7
3 234 7 229
3 226 234 229
3 226 229 43
3 44 238 239
3 230 44 239
3 230 239 241
3 7 230 241
3 229 7 241
3 229 241 243
3 43 229 243
3 43 243 245
3 238 237 240
3 239 238 240
3 239 240 242
3 241 239 242
3 243 241 242
3 243 242 244
3 245 243 244
3 245 244 246
3 237 36 236
3 240 237 236
3 240 236 6
3 242 240 6
3 244 242 6
3 244 6 235
3 246 244 235
3 246 235 35
3 36 250 251
3 236 36 251
3 236 251 253
3 6 236 253
3 235 6 253
3 235 253 255
3 35 235 255
3 35 255 257
3 250 249 252
3 251 250 252
3 251 252 254
3 253 251 254
3 255 253 254
3 255 254 256
3 257 255 256
3 257 256 258
3 249 28 248
3 252 249 248
3 252 248 70
3 254 252 70
3 256 254 70
3 256 70 247
3 258 256 247
3 258 247 27
3 248 28 5
3 70 248 5
3 247 70 5
3 27 247 5
3 54 263 265
3 260 54 265
3 260 265 267
3 19 260 267
3 19 267 259
3 259 267 269
3 53 259 269
3 53 269 271
3 263 264 266
3 265 263 266
3 265 266 268
3 267 265 268
3 269 267 268
3 269 268 270
3 271 269 270
3 271 270 272
3 264 46 261
3 266 264 261
3 266 261 10
3 268 266 10
3 270 268 10
3 270 10 262
3 272 270 262
3 272 262 45
3 46 276 277
3 261 46 277
3 261 277 279
3 10 261 279
3 10 279 262
3 262 279 281
3 45 262 281
3 45 281 283
3 276 275 278
3 277 276 278
3 277 278 280
3 279 277 280
3 281 279 280
3 281 280 282
3 283 281 282
3 283 282 284
3 275 38 274
3 278 275 274
3 278 274 9
3 280 278 9
3 282 280 9
3 282 9 273
3 284 282 273
3 284 273 37
3 38 287 289
3 38 289 274
3 274 289 291
3 9 274 291
3 273 9 291
3 273 291 293
3 37 273 293
3 37 293 295
3 287 288 290
3 289 287 290
3 289 290 292
3 291 289 292
3 293 291 292
3 293 292 294
3 295 293 294
3 295 294 296
3 288 30 285
3 290 288 285
3 290 285 71
3 292 290 71
3 294 292 71
3 294 71 286
3 296 294 286
3 296 286 29
3 285 30 8
3 71 285 8
3 286 71 8
3 29 286 8
3 56 302 303
3 298 56 303
3 298 303 305
3 18 298 305
3 297 18 305
3 297 305 307
3 55 297 307
3 55 307 309
3 302 301 304
3 303 302 304
3 303 304 306
3 305 303 306
3 307 305 306
3 307 306 308
3 309 307 308
3 309 308 310
3 301 48 300
3 304 301 300
3 304 300 13
3 306 304 13
3 308 306 13
3 308 13 299
3 310 308 299
3 310 299 47
3 48 313 315
3 300 48 315
3 300 315 317
3 13 300 317
3 299 13 317
3 299 317 319
3 47 299 319
3 47 319 321
3 313 314 316
3 315 313 316
3 315 316 318
3 317 315 318
3 319 317 318
3 319 318 320
3 321 319 320
3 321 320 322
3 314 40 311
3 316 314 311
3 316 311 12
3 318 316 12
3 320 318 12
3 320 12 312
3 322 320 312
3 322 312 39
3 40 325 327
3 311 40 327
3 311 327 329
3 12 311 329
3 312 12 329
3 331 312 329
3 39 312 331
3 39 331 333
3 325 326 328
3 327 325 328
3 327 328 330
3 329 327 330
3 331 329 330
3 331 330 332
3 333 331 332
3 333 332 334
3 326 32 324
3 328 326 324
3 328 324 72
3 330 328 72
3 332 330 72
3 332 72 323
3 334 332 323
3 334 323 31
3 32 11 324
3 72 324 11
3 323 72 11
3 323 11 31
3 336 25 2
3 336 2 335
3 88 335 2
3 11 32 337
3 337 338 11
3 338 68 11
3 109 118 94
3 94 118 14
3 85 108 106
3 108 96 106
3 57 108 85
3 101 57 85
3 68 57 101
