ply
format ascii 1.0
comment Made by Golan Levin et al.
comment This file is the bind pose for a generic hand.
element vertex 73
property float x
property float y
element face 91
property list uchar int vertex_index
end_header
292.500 666.000
293.000 466.000
222.000 323.000
189.500 278.000
170.500 248.000
256.250 305.000
232.000 241.000
215.500 193.252
294.000 296.000
292.038 215.500
292.038 163.000
335.000 300.000
357.402 228.000
368.402 187.252
323.000 458.000
397.250 392.000
438.500 346.000
480.500 320.000
378.401 138.752
288.038 102.000
197.000 144.752
149.000 216.500
226.667 294.333
269.333 276.833
316.833 273.333
197.000 316.167
221.000 294.500
230.000 289.000
264.000 275.667
273.500 273.000
311.167 270.500
322.334 271.500
361.167 285.166
177.667 287.333
201.667 268.333
215.333 248.667
248.667 233.667
272.333 216.000
311.333 215.333
339.333 221.667
374.333 234.667
159.000 255.667
181.000 240.667
200.500 200.000
229.750 188.250
274.500 163.500
308.500 162.000
352.000 182.250
382.500 191.500
144.000 228.000
163.250 214.750
187.750 158.750
214.500 147.750
273.250 111.750
305.750 111.750
365.250 142.750
389.750 151.500
382.334 356.667
411.500 404.000
425.250 331.000
447.000 362.000
469.500 314.250
484.250 333.250
350.500 476.000
236.000 472.500
214.500 396.500
236.000 663.500
350.500 663.000
369.000 320.000
209.000 306.000
247.000 281.000
292.000 271.000
341.000 279.000
3 62 60 16
3 17 62 16
3 61 17 16
3 61 16 59
3 60 58 15
3 16 60 15
3 59 16 15
3 59 15 57
3 58 63 14
3 15 58 14
3 57 15 14
3 57 14 1
3 50 42 4
3 21 50 4
3 21 4 49
3 49 4 41
3 42 34 3
3 4 42 3
3 41 4 3
3 41 3 33
3 34 26 69
3 3 34 69
3 33 3 69
3 33 69 25
3 26 22 2
3 69 26 2
3 25 69 2
3 52 44 7
3 20 52 7
3 51 20 7
3 51 7 43
3 44 36 6
3 7 44 6
3 43 7 6
3 43 6 35
3 36 28 70
3 6 36 70
3 35 6 70
3 35 70 27
3 28 23 5
3 70 28 5
3 27 70 5
3 27 5 22
3 54 46 10
3 19 54 10
3 53 19 10
3 53 10 45
3 46 38 9
3 10 46 9
3 45 10 9
3 45 9 37
3 38 30 71
3 9 38 71
3 37 9 71
3 37 71 29
3 30 24 8
3 71 30 8
3 29 71 8
3 29 8 23
3 56 48 13
3 18 56 13
3 55 18 13
3 55 13 47
3 48 40 12
3 13 48 12
3 47 13 12
3 47 12 39
3 40 32 72
3 12 40 72
3 39 12 72
3 39 72 31
3 32 11 72
3 31 72 11
3 24 31 11
3 25 2 65
3 22 5 2
3 23 8 5
3 24 11 8
3 32 68 11
3 65 1 64
3 14 63 1
3 2 1 65
3 2 5 1
3 5 8 1
3 8 11 1
3 11 68 1
3 68 57 1
3 63 67 0
3 1 63 0
3 64 1 0
3 64 0 66
